<mxfile host="app.diagrams.net" modified="2023-05-31T13:41:54.580Z" agent="Mozilla/5.0 (Macintosh; Intel Mac OS X 10_15_7) AppleWebKit/605.1.15 (KHTML, like Gecko) Version/16.5 Safari/605.1.15" etag="_Aojl6KQEBU2VrYlzLoA" version="21.3.6" type="device">
  <diagram name="Page-1" id="lmc4mzDQ-m7EOjaSGcAK">
    <mxGraphModel dx="995" dy="949" grid="1" gridSize="10" guides="1" tooltips="1" connect="1" arrows="1" fold="1" page="1" pageScale="1" pageWidth="827" pageHeight="1169" math="0" shadow="0">
      <root>
        <mxCell id="0" />
        <mxCell id="1" parent="0" />
        <mxCell id="OfKVoWeYKnsoo2-z-7Tt-5" style="edgeStyle=orthogonalEdgeStyle;rounded=0;orthogonalLoop=1;jettySize=auto;html=1;exitX=1;exitY=0.5;exitDx=0;exitDy=0;entryX=0;entryY=0.5;entryDx=0;entryDy=0;" parent="1" source="OfKVoWeYKnsoo2-z-7Tt-1" target="OfKVoWeYKnsoo2-z-7Tt-2" edge="1">
          <mxGeometry relative="1" as="geometry" />
        </mxCell>
        <mxCell id="OfKVoWeYKnsoo2-z-7Tt-1" value="Frontend" style="html=1;" parent="1" vertex="1">
          <mxGeometry x="160" width="120" height="120" as="geometry" />
        </mxCell>
        <mxCell id="OfKVoWeYKnsoo2-z-7Tt-8" style="edgeStyle=orthogonalEdgeStyle;rounded=0;orthogonalLoop=1;jettySize=auto;html=1;exitX=1;exitY=0.5;exitDx=0;exitDy=0;entryX=0;entryY=0.5;entryDx=0;entryDy=0;entryPerimeter=0;" parent="1" source="OfKVoWeYKnsoo2-z-7Tt-2" target="OfKVoWeYKnsoo2-z-7Tt-7" edge="1">
          <mxGeometry relative="1" as="geometry" />
        </mxCell>
        <mxCell id="OfKVoWeYKnsoo2-z-7Tt-2" value="Backend" style="html=1;" parent="1" vertex="1">
          <mxGeometry x="400" width="120" height="120" as="geometry" />
        </mxCell>
        <mxCell id="OfKVoWeYKnsoo2-z-7Tt-4" style="edgeStyle=orthogonalEdgeStyle;rounded=0;orthogonalLoop=1;jettySize=auto;html=1;entryX=0;entryY=0.5;entryDx=0;entryDy=0;" parent="1" source="OfKVoWeYKnsoo2-z-7Tt-3" target="OfKVoWeYKnsoo2-z-7Tt-1" edge="1">
          <mxGeometry relative="1" as="geometry" />
        </mxCell>
        <mxCell id="OfKVoWeYKnsoo2-z-7Tt-3" value="User" style="shape=umlActor;verticalLabelPosition=bottom;verticalAlign=top;html=1;" parent="1" vertex="1">
          <mxGeometry x="10" y="30" width="30" height="60" as="geometry" />
        </mxCell>
        <mxCell id="OfKVoWeYKnsoo2-z-7Tt-7" value="DB" style="shape=cylinder3;whiteSpace=wrap;html=1;boundedLbl=1;backgroundOutline=1;size=15;" parent="1" vertex="1">
          <mxGeometry x="640" width="120" height="120" as="geometry" />
        </mxCell>
        <mxCell id="Gr1v33Undc8eEa7_5Mja-1" value="" style="shape=cylinder3;whiteSpace=wrap;html=1;boundedLbl=1;backgroundOutline=1;size=15;rotation=-90;horizontal=1;" vertex="1" parent="1">
          <mxGeometry x="421.25" y="138.75" width="80" height="200" as="geometry" />
        </mxCell>
        <mxCell id="Gr1v33Undc8eEa7_5Mja-2" value="Message Broker (RabbitMQ)" style="text;strokeColor=none;align=center;fillColor=none;html=1;verticalAlign=middle;whiteSpace=wrap;rounded=0;" vertex="1" parent="1">
          <mxGeometry x="390" y="223.75" width="170" height="30" as="geometry" />
        </mxCell>
        <mxCell id="Gr1v33Undc8eEa7_5Mja-3" value="" style="endArrow=classic;html=1;rounded=0;exitX=0;exitY=0.75;exitDx=0;exitDy=0;entryX=0.5;entryY=0;entryDx=0;entryDy=0;entryPerimeter=0;" edge="1" parent="1" source="OfKVoWeYKnsoo2-z-7Tt-2" target="Gr1v33Undc8eEa7_5Mja-1">
          <mxGeometry width="50" height="50" relative="1" as="geometry">
            <mxPoint x="390" y="140" as="sourcePoint" />
            <mxPoint x="440" y="90" as="targetPoint" />
            <Array as="points">
              <mxPoint x="320" y="90" />
              <mxPoint x="320" y="240" />
            </Array>
          </mxGeometry>
        </mxCell>
        <mxCell id="Gr1v33Undc8eEa7_5Mja-4" value="" style="endArrow=classic;html=1;rounded=0;entryX=1;entryY=0.75;entryDx=0;entryDy=0;exitX=1;exitY=0.5;exitDx=0;exitDy=0;" edge="1" parent="1" source="Gr1v33Undc8eEa7_5Mja-2" target="OfKVoWeYKnsoo2-z-7Tt-2">
          <mxGeometry width="50" height="50" relative="1" as="geometry">
            <mxPoint x="390" y="140" as="sourcePoint" />
            <mxPoint x="440" y="90" as="targetPoint" />
            <Array as="points">
              <mxPoint x="600" y="239" />
              <mxPoint x="600" y="90" />
            </Array>
          </mxGeometry>
        </mxCell>
      </root>
    </mxGraphModel>
  </diagram>
</mxfile>
